# Blender 4.4.0
# www.blender.org
mtllib Untitled.mtl
o Cube
v 0.948012 -1.038178 1.028633
v 0.948012 -1.038178 -0.971366
v -1.051988 -1.038178 1.028633
v -1.051988 -1.038178 -0.971366
v 1.000000 1.000000 1.000000
v 1.000000 1.000000 -1.000000
v -1.000000 1.000000 1.000000
v -1.000000 1.000000 -1.000000
vn -0.9997 0.0255 -0.0000
vn -0.0000 1.0000 -0.0000
vn -0.0000 -1.0000 -0.0000
vn 0.9997 -0.0255 -0.0000
vn -0.0000 0.0140 0.9999
vn -0.0000 -0.0140 -0.9999
vt 0.375000 0.750000
vt 0.625000 1.000000
vt 0.375000 1.000000
vt 0.625000 0.000000
vt 0.375000 0.250000
vt 0.375000 0.000000
vt 0.625000 0.500000
vt 0.375000 0.500000
vt 0.625000 0.250000
vt 0.625000 0.750000
vt 0.875000 0.750000
vt 0.125000 0.750000
vt 0.125000 0.500000
vt 0.875000 0.500000
s 1
usemtl Material.004
f 4/1/1 7/2/1 8/3/1
f 7/4/2 6/5/2 8/6/2
f 1/7/3 4/1/3 2/8/3
f 5/9/4 2/8/4 6/5/4
f 4/1/1 3/10/1 7/2/1
f 7/4/2 5/9/2 6/5/2
f 1/7/3 3/10/3 4/1/3
f 5/9/4 1/7/4 2/8/4
usemtl Material.005
f 1/7/5 7/11/5 3/10/5
f 2/8/6 8/12/6 6/13/6
f 1/7/5 5/14/5 7/11/5
f 2/8/6 4/1/6 8/12/6
